<svg xmlns="http://www.w3.org/2000/svg" viewBox="0 0 255.42 145.29"><defs><style>.cls-1{fill:#231f20;}.cls-2{fill:#1968a8;}.cls-3{fill:#ed1c24;}</style></defs><g id="Layer_2" data-name="Layer 2"><g id="Layer_2-2" data-name="Layer 2"><polygon class="cls-1" points="253.24 95.57 243.43 95.57 243.43 101.23 246.92 101.23 246.92 105.08 245.1 105.08 240.61 105.08 238.79 105.08 238.79 113.46 238.79 119.8 238.79 120.51 248.06 120.51 248.06 114.77 245.1 114.77 245.1 110.82 253.24 110.82 253.24 110.52 253.24 110.52 253.24 95.87 253.24 95.87 253.24 95.57"/><polygon class="cls-1" points="172.68 28.83 132.7 28.83 132.7 24.68 209.96 24.68 217.32 24.68 217.32 18.93 217.32 16.18 217.32 10.5 217.32 10.43 142.05 10.43 142.05 5.67 177.1 5.67 177.1 0 142.05 0 134.69 0 134.69 7.05 134.69 9.74 134.69 15.49 142.05 15.49 209.96 15.49 209.96 19.63 132.7 19.63 127.44 19.63 125.34 19.63 125.34 28.13 125.34 33.81 125.34 33.88 172.68 33.88 172.68 28.83"/><polygon class="cls-2" points="127.84 47.25 127.84 43.14 224.14 43.14 231.5 43.14 231.5 37.39 231.5 34.57 231.5 28.96 231.5 28.83 177.49 28.83 177.49 33.88 224.14 33.88 224.14 38.08 127.84 38.08 120.48 38.08 120.48 44.44 120.48 52.26 124.55 52.26 124.55 52.3 248.06 52.3 248.06 56.38 161.27 56.38 153.91 56.38 153.91 62.13 153.91 64.97 153.91 70.56 153.91 70.72 203.93 70.72 203.93 65.67 161.27 65.67 161.27 61.44 248.06 61.44 252.24 61.44 255.42 61.44 255.42 53.61 255.42 47.26 255.42 47.25 127.84 47.25"/><polygon class="cls-3" points="199.13 102.55 199.13 107.6 225.24 107.6 225.24 111.79 184.06 111.79 176.69 111.79 176.69 117.54 176.69 119.8 176.69 125.97 176.69 126.16 211.68 126.16 211.68 130.19 196.72 130.19 189.36 130.19 189.36 135.94 189.36 138.24 189.36 145.06 189.36 145.29 207.61 145.29 207.61 139.55 196.72 139.55 196.72 135.24 211.68 135.24 215.36 135.24 219.03 135.24 219.03 121.06 211.68 121.06 211.68 121.11 184.06 121.11 184.06 116.84 225.24 116.84 226.85 116.84 232.6 116.84 232.6 108.3 232.6 102.55 225.24 102.55 199.13 102.55"/><polygon class="cls-1" points="208.74 65.67 208.74 70.72 239.23 70.72 239.23 74.83 183.05 74.83 175.69 74.83 175.69 80.58 175.69 89.01 178.39 89.01 178.39 89.09 222.92 89.09 222.92 93.23 188.14 93.23 180.78 93.23 180.78 98.98 180.78 101.24 180.78 107.41 180.78 107.6 194.32 107.6 194.32 102.55 188.14 102.55 188.14 98.29 222.92 98.29 230.28 98.29 230.28 91.93 230.28 89.78 230.28 84.11 230.28 84.03 183.05 84.03 183.05 79.89 239.23 79.89 240.51 79.89 246.59 79.89 246.59 71.42 246.59 65.71 246.59 65.67 208.74 65.67"/><path class="cls-3" d="M35.75,87.69l-2,1.5A10.64,10.64,0,0,0,29.9,86a11.37,11.37,0,0,0-5-1.09,11.06,11.06,0,0,0-5.51,1.42,10.36,10.36,0,0,0-3.93,3.84,10.62,10.62,0,0,0-1.4,5.42,10.17,10.17,0,0,0,3.12,7.59,10.82,10.82,0,0,0,7.87,3,11,11,0,0,0,8.74-4.09l2,1.49a12.44,12.44,0,0,1-4.64,3.66,14.56,14.56,0,0,1-6.21,1.29,12.92,12.92,0,0,1-10.29-4.34,13.12,13.12,0,0,1-3.17-8.86,12.34,12.34,0,0,1,3.83-9.19,13.24,13.24,0,0,1,9.6-3.73,14.1,14.1,0,0,1,6.29,1.38,12.15,12.15,0,0,1,4.59,3.87"/><path class="cls-3" d="M52.58,82.44A12.92,12.92,0,0,1,62,86.21a13.07,13.07,0,0,1-9.26,22.35,12.72,12.72,0,0,1-9.33-3.78,12.46,12.46,0,0,1-3.81-9.17A13.2,13.2,0,0,1,41.38,89a12.55,12.55,0,0,1,4.72-4.79,12.7,12.7,0,0,1,6.48-1.74m.11,2.42a10.63,10.63,0,0,0-9.09,5.31,10.77,10.77,0,0,0-1.39,5.44,10.47,10.47,0,0,0,10.48,10.54,10.6,10.6,0,0,0,5.36-1.41,10,10,0,0,0,3.84-3.84,10.78,10.78,0,0,0,1.38-5.41,10.54,10.54,0,0,0-1.38-5.36A10.34,10.34,0,0,0,58,86.3a10.5,10.5,0,0,0-5.32-1.44"/><path class="cls-3" d="M70.83,107.94V83.07H76a26.12,26.12,0,0,1,8.09.9,10.8,10.8,0,0,1,5.66,4.39,13.36,13.36,0,0,1,2,7.46,13,13,0,0,1-1.62,6.57,10.33,10.33,0,0,1-4.19,4.2,15.83,15.83,0,0,1-7.23,1.35Zm2.38-2.35h2.88a27.13,27.13,0,0,0,7.15-.64,8.27,8.27,0,0,0,4.41-3.29,10.12,10.12,0,0,0,1.61-5.8,10.65,10.65,0,0,0-1.74-6.15,8.77,8.77,0,0,0-4.86-3.5,29.48,29.48,0,0,0-7.69-.7H73.21Z"/><polygon class="cls-3" points="96.61 83.07 110.86 83.07 110.86 85.5 99.1 85.5 99.1 93.3 110.76 93.3 110.76 95.73 99.1 95.73 99.1 105.5 110.76 105.5 110.76 107.94 96.61 107.94 96.61 83.07"/><path class="cls-1" d="M11.8,113.92h5.91l11.77,30.6H23.43l-2.4-6.3H8.54l-2.49,6.3H0Zm3,8.11-4.1,10.51h8.18Z"/><polygon class="cls-1" points="34.07 113.92 49.26 113.92 49.26 119.6 39.85 119.6 39.85 125.15 49.26 125.15 49.26 130.75 39.85 130.75 39.85 144.52 34.07 144.52 34.07 113.92"/><path class="cls-1" d="M54.83,113.92H61q5.07,0,7.23.9a7.5,7.5,0,0,1,3.46,3,9.23,9.23,0,0,1,1.3,5,8.53,8.53,0,0,1-1.44,5,8.75,8.75,0,0,1-4.36,3.06l7.25,13.61H68.07l-6.88-13h-.53v13H54.83Zm5.83,12h1.82a7.13,7.13,0,0,0,3.83-.73,2.74,2.74,0,0,0,1-2.42,3,3,0,0,0-.52-1.75,2.94,2.94,0,0,0-1.39-1.06,10.8,10.8,0,0,0-3.2-.32H60.66Z"/><rect class="cls-1" x="78.74" y="113.92" width="5.78" height="30.6"/><path class="cls-1" d="M119.2,119.3l-4.07,3.88a12.61,12.61,0,0,0-9.36-4.39,10.23,10.23,0,0,0-10.39,10.39,10.87,10.87,0,0,0,1.33,5.43,9.5,9.5,0,0,0,3.76,3.73,11,11,0,0,0,5.41,1.35,11.14,11.14,0,0,0,4.63-.94,16.57,16.57,0,0,0,4.62-3.45l4,4.12a21.57,21.57,0,0,1-6.41,4.59,17.56,17.56,0,0,1-6.89,1.28,15.88,15.88,0,0,1-11.68-4.52,15.68,15.68,0,0,1-4.54-11.6A15.89,15.89,0,0,1,91.63,121a15.38,15.38,0,0,1,5.92-5.72,16.79,16.79,0,0,1,8.32-2.16,17.62,17.62,0,0,1,13.33,6.15"/><path class="cls-1" d="M133.64,113.92h5.9l11.78,30.6h-6.06l-2.39-6.3H130.38l-2.49,6.3h-6.06Zm3,8.11-4.11,10.51h8.19Z"/><path class="cls-1" d="M129.2,90c.08-.25.15-.46.19-.63a2.16,2.16,0,0,0,.06-.47,1.63,1.63,0,0,0-.28-1,1,1,0,0,0-.82-.35c-.73,0-1.66.66-2.77,2a41.52,41.52,0,0,0-4,6h5.42l-.3.28h-5.31l-4.82,7.75A19.4,19.4,0,0,1,112,109a8.29,8.29,0,0,1-5,1.73,5.29,5.29,0,0,1-3-.73,2.36,2.36,0,0,1-1.07-2.06,2.07,2.07,0,0,1,.68-1.57,2.36,2.36,0,0,1,1.7-.64,4.41,4.41,0,0,1,.52,0,3.21,3.21,0,0,1,.53.07l0,.17-.15,0h-.2a1.73,1.73,0,0,0-1.31.55,1.93,1.93,0,0,0-.52,1.39,2.4,2.4,0,0,0,.82,1.87,3.11,3.11,0,0,0,2.14.74,6,6,0,0,0,4-1.83,32.84,32.84,0,0,0,4.89-6.47l4-6.39h-2l.23-.28h1.89l2.2-3.27a15.17,15.17,0,0,1,3.27-3.69,5.37,5.37,0,0,1,3.22-1.27,2.09,2.09,0,0,1,1.3.38,1.13,1.13,0,0,1,.5,1,1.29,1.29,0,0,1-.37.95,1.73,1.73,0,0,1-1,.46"/><path class="cls-1" d="M135.41,97.08l.15.1a5.77,5.77,0,0,1-1.4,1.28,2.77,2.77,0,0,1-1.44.4,1.85,1.85,0,0,1-1.22-.38,2.07,2.07,0,0,1-.69-1.12,7.15,7.15,0,0,1-.84,2.4,9.1,9.1,0,0,1-3.87,3.52,4.62,4.62,0,0,1-2,.5,1.89,1.89,0,0,1-1.48-.56,2.59,2.59,0,0,1-.49-1.7,4.89,4.89,0,0,1,1-2.7,10.87,10.87,0,0,1,2.7-2.67,7.22,7.22,0,0,1,1.64-.88,4.47,4.47,0,0,1,1.58-.33c.94,0,1.59.79,1.95,2.36a.19.19,0,0,0,0,.08,1.59,1.59,0,0,0,.61.94,1.77,1.77,0,0,0,1.11.34,2.59,2.59,0,0,0,1.35-.37,5.31,5.31,0,0,0,1.34-1.21m-5.79-.56a1.51,1.51,0,0,0-.27-1,.9.9,0,0,0-.74-.35,2.39,2.39,0,0,0-1.24.44A6.26,6.26,0,0,0,126,96.92a13.91,13.91,0,0,0-1.88,2.81,5.51,5.51,0,0,0-.68,2.38,1.58,1.58,0,0,0,.31,1,1,1,0,0,0,.82.4,2.62,2.62,0,0,0,1.48-.64,8.23,8.23,0,0,0,1.65-1.75,11.79,11.79,0,0,0,1.4-2.5,5.94,5.94,0,0,0,.52-2.13"/><path class="cls-1" d="M141.29,95.09a8.25,8.25,0,0,0-.85,1.45,3.22,3.22,0,0,0-.3,1.19.86.86,0,0,0,.21.63,1,1,0,0,0,.68.2,3,3,0,0,0,1.27-.39,5,5,0,0,0,1.38-1l.13.14a5.52,5.52,0,0,1-1.52,1.13,3.66,3.66,0,0,1-1.63.42,1.77,1.77,0,0,1-1.24-.41,1.45,1.45,0,0,1-.44-1.12,2.39,2.39,0,0,1,.09-.63,4.23,4.23,0,0,1,.27-.71,24.36,24.36,0,0,0-3.8,3.55,17.57,17.57,0,0,0-2.54,4l-1.72.1,5.09-8.2,1.6-.1-3.21,4.56.09.07a26.27,26.27,0,0,1,2.08-2.16c.76-.71,1.58-1.41,2.46-2.11l.05,0a1.16,1.16,0,0,1,.72-.48Z"/></g></g></svg>